<?xml version="1.0" encoding="UTF-8"?>
<svg version="1.1" xmlns="http://www.w3.org/2000/svg" width="291" height="150">
<path d="M0 0 C96.03 0 192.06 0 291 0 C291 49.5 291 99 291 150 C194.97 150 98.94 150 0 150 C0 100.5 0 51 0 0 Z " fill="#010101" transform="translate(0,0)"/>
<path d="M0 0 C2.5625 1.5 2.5625 1.5 4 3 C4.33 2.67 4.66 2.34 5 2 C7.67058851 1.85884839 10.32432238 1.95752893 13 2 C11.08938547 23.82122905 11.08938547 23.82122905 9 28 C6.69 28 4.38 28 2 28 C1.67 27.01 1.34 26.02 1 25 C0.34 25.33 -0.32 25.66 -1 26 C-4.05940837 26.42074378 -6.9459708 26.47999423 -10 26 C-13.28175318 23.47031526 -14.69243777 21.92268669 -16 18 C-16.44614903 11.30776456 -15.84347693 6.39029941 -11.375 1.0625 C-7.64563052 -0.60590213 -4.01443945 -0.57454363 0 0 Z " fill="#F8F8F8" transform="translate(113,36)"/>
<path d="M0 0 C2.97 0.33 5.94 0.66 9 1 C10.62854096 4.73189285 11.55578102 8.28778001 12.2890625 12.2890625 C12.50820313 13.47757813 12.72734375 14.66609375 12.953125 15.890625 C13.17484375 17.12296875 13.3965625 18.3553125 13.625 19.625 C13.96917969 21.48511719 13.96917969 21.48511719 14.3203125 23.3828125 C16 32.58110119 16 32.58110119 16 36 C13.36 35.67 10.72 35.34 8 35 C7.34 33.02 6.68 31.04 6 29 C0.06 28.01 0.06 28.01 -6 27 C-6.99 29.475 -6.99 29.475 -8 32 C-10.64 31.67 -13.28 31.34 -16 31 C-14.67904588 26.65162313 -12.98197857 22.89548948 -10.7421875 18.9453125 C-10.11699219 17.83671875 -9.49179687 16.728125 -8.84765625 15.5859375 C-8.19667969 14.44382812 -7.54570313 13.30171875 -6.875 12.125 C-6.20915523 10.94818823 -5.54378604 9.77110724 -4.87890625 8.59375 C-3.25725735 5.72648674 -1.63082801 2.86204916 0 0 Z " fill="#F4F4F4" transform="translate(46,19)"/>
<path d="M0 0 C5.65116279 2.30232558 5.65116279 2.30232558 7 5 C7.33 4.01 7.66 3.02 8 2 C9.32 2 10.64 2 12 2 C11.50610812 10.78607656 10.63177319 19.35001785 9 28 C7.0625 27.6875 7.0625 27.6875 5 27 C4.67 26.01 4.34 25.02 4 24 C3.01 24.66 2.02 25.32 1 26 C-2.76904461 26.6820176 -6.45628171 26.83098707 -9.88671875 24.984375 C-13.27644666 22.25946055 -14.71436303 20.06815631 -15.30859375 15.765625 C-15.56141389 10.83180173 -15.40485038 7.79192271 -12.125 3.9375 C-8.24499554 -0.04559636 -5.59906116 -0.37327074 0 0 Z " fill="#F1F1F1" transform="translate(84,87)"/>
<path d="M0 0 C0.66 0 1.32 0 2 0 C2.66 1.65 3.32 3.3 4 5 C5.98 5 7.96 5 10 5 C10.144375 5.7425 10.28875 6.485 10.4375 7.25 C10.90222861 9.52200655 11.42077143 11.75548928 12 14 C12.33333333 15.33333333 12.66666667 16.66666667 13 18 C12.360625 18.391875 11.72125 18.78375 11.0625 19.1875 C8.56221181 21.38472296 8.35049575 22.75791433 8 26 C6.7625 26.12375 5.525 26.2475 4.25 26.375 C1.1237803 26.75746305 -1.28879237 27.30549523 -4 29 C-4.37125 28.360625 -4.7425 27.72125 -5.125 27.0625 C-7.58052793 24.36141928 -9.44578805 24.31592995 -13 24 C-13.185625 22.14375 -13.185625 22.14375 -13.375 20.25 C-13.75746305 17.1237803 -14.30549523 14.71120763 -16 12 C-15.38125 11.62875 -14.7625 11.2575 -14.125 10.875 C-11.71120198 9.11474703 -11.71120198 9.11474703 -11.3125 5.9375 C-10.6628125 4.4834375 -10.6628125 4.4834375 -10 3 C-7.66634206 2.10849022 -5.46446856 1.69151292 -2.99609375 1.32421875 C-1.00567156 1.20053574 -1.00567156 1.20053574 0 0 Z " fill="#1469E9" transform="translate(275,40)"/>
<path d="M0 0 C2.64 0.33 5.28 0.66 8 1 C10.5 8.5 10.5 8.5 13 16 C13.42152344 15.21753906 13.84304687 14.43507813 14.27734375 13.62890625 C14.82519531 12.61699219 15.37304688 11.60507812 15.9375 10.5625 C16.75541016 9.04849609 16.75541016 9.04849609 17.58984375 7.50390625 C19 5 19 5 20 4 C22.33297433 3.95907063 24.66705225 3.95758277 27 4 C28 7 28 7 26.83178711 9.40087891 C26.2363208 10.33335449 25.64085449 11.26583008 25.02734375 12.2265625 C24.37443359 13.25910156 23.72152344 14.29164062 23.04882812 15.35546875 C22.35208984 16.43441406 21.65535156 17.51335938 20.9375 18.625 C19.93299805 20.20861328 19.93299805 20.20861328 18.90820312 21.82421875 C15.01889069 27.93653645 11.04839195 33.99196829 7 40 C3.04 39.505 3.04 39.505 -1 39 C0.08230755 35.93346195 1.14233916 33.82105935 3.1875 31.25 C7.01392697 24.38882061 3.28637315 15.7112786 1.37304688 8.49658203 C0.60147293 5.57350383 0 3.0384119 0 0 Z " fill="#F4F4F4" transform="translate(143,41)"/>
<path d="M0 0 C6.15234375 0.5859375 6.15234375 0.5859375 8 1 C8.33 1.66 8.66 2.32 9 3 C9.33 2.67 9.66 2.34 10 2 C15.33043395 1.64463774 18.65723256 1.55133174 23 5 C26.16594381 9.74891572 25.39017468 14.02882849 24.32421875 19.4140625 C23.58728504 22.62024801 22.8161478 25.81313716 22 29 C19.69 28.67 17.38 28.34 15 28 C14.90523524 23.45129145 14.92260414 19.06609696 15.625 14.5625 C15.74875 13.386875 15.8725 12.21125 16 11 C14.16116119 8.71271266 14.16116119 8.71271266 11.375 8.875 C10.59125 8.91625 9.8075 8.9575 9 9 C7.29336293 14.60752181 6.08896667 20.24237834 5 26 C2.36 26 -0.28 26 -3 26 C-2.45520982 17.24034738 -1.45892001 8.65437017 0 0 Z " fill="#F4F4F4" transform="translate(69,30)"/>
<path d="M0 0 C14.56931738 0.68367347 14.56931738 0.68367347 19.875 5.8125 C21.3783854 8.73574938 21.33847401 10.75064948 21 14 C19.79293121 17.34265205 19.07943151 17.94704566 16 20 C12.64453125 20.1953125 12.64453125 20.1953125 8.8125 20.125 C7.54019531 20.10695313 6.26789062 20.08890625 4.95703125 20.0703125 C3.98121094 20.04710938 3.00539063 20.02390625 2 20 C1.34 23.96 0.68 27.92 0 32 C-1.32 32 -2.64 32 -4 32 C-3.43739111 21.19402929 -1.78964322 10.65907 0 0 Z " fill="#EEEEEE" transform="translate(46,75)"/>
<path d="M0 0 C3.66195861 1.59215592 6.20204902 3.40409804 8 7 C8.240143 10.01744898 8.17421398 12.98029102 8 16 C-5.6332574 15.03644647 -5.6332574 15.03644647 -12 14 C-10.98072501 18.22782673 -10.98072501 18.22782673 -8.25 21.4375 C-5.20840031 22.19789992 -3.01357156 21.7861491 0 21 C0.66 20.34 1.32 19.68 2 19 C4.625 18.875 4.625 18.875 7 19 C5.59418135 22.39739506 4.11285464 24.05036999 1 26 C-3.03462028 26.79893471 -7.19603657 26.92775262 -10.9140625 25.015625 C-13.70593681 22.78762678 -15.9886713 20.43851759 -17 17 C-17.4850824 11.76111007 -16.85631117 8.43220699 -14 4 C-9.89542476 -0.58746645 -5.82388071 -0.87887654 0 0 Z " fill="#ECECEC" transform="translate(180,102)"/>
<path d="M0 0 C3.71052627 1.57894735 5.98209901 3.4952246 8 7 C8 8.32 8 9.64 8 11 C5.36 10.67 2.72 10.34 0 10 C-0.33 9.01 -0.66 8.02 -1 7 C-3.37374861 6.66574265 -3.37374861 6.66574265 -6 7 C-8.04826062 8.47959573 -8.04826062 8.47959573 -9 11 C-8.77131906 14.68815293 -8.77131906 14.68815293 -8 18 C-6.02 18.33 -4.04 18.66 -2 19 C-2 18.34 -2 17.68 -2 17 C0.97 17.33 3.94 17.66 7 18 C6.11593727 20.97366555 5.31696033 22.7127547 3 24.8125 C-1.38201817 26.54704886 -5.35486415 26.80267948 -10 26 C-13.18241939 24.35998019 -15.21413983 22.03590658 -17.375 19.1875 C-18.84642784 14.03750258 -18.70719826 10.33862529 -16.25 5.6875 C-11.32065404 -0.2003299 -7.47305951 -0.89773767 0 0 Z " fill="#F5F5F5" transform="translate(221,53)"/>
<path d="M0 0 C3.02286884 1.38548155 4.66871425 2.66871425 7 5 C7.125 7.625 7.125 7.625 7 10 C4.6568787 9.74438677 2.32156597 9.40729228 0 9 C-0.33 8.34 -0.66 7.68 -1 7 C-3.52733235 6.34444881 -3.52733235 6.34444881 -6 6 C-5.34241818 9.04823002 -5.34241818 9.04823002 -3.2578125 10.0625 C-2.55398437 10.371875 -1.85015625 10.68125 -1.125 11 C1.79886433 12.29470007 4.01652754 13.43906087 6 16 C5.88033149 19.35071827 5.77984012 21.92117964 3.77734375 24.69140625 C0.12566273 27.38000656 -4.69741583 26.54626247 -9 26 C-12.625 24.375 -12.625 24.375 -15 22 C-15.875 18.75 -15.875 18.75 -16 16 C-9.84765625 16.5859375 -9.84765625 16.5859375 -8 17 C-7.67 17.66 -7.34 18.32 -7 19 C-4.47266765 19.65555119 -4.47266765 19.65555119 -2 20 C-2 19.01 -2 18.02 -2 17 C-2.86625 16.773125 -3.7325 16.54625 -4.625 16.3125 C-8.79242221 14.69183581 -10.90559169 13.24176109 -14 10 C-14.73749023 6.38629789 -14.46445028 4.8022323 -12.625 1.625 C-8.56408294 -0.88890104 -4.65028233 -0.64063857 0 0 Z " fill="#F4F4F4" transform="translate(247,57)"/>
<path d="M0 0 C2.69082872 0.17635452 5.32851446 0.61835921 8 1 C7.67 3.31 7.34 5.62 7 8 C8.65 8 10.3 8 12 8 C11.67 10.31 11.34 12.62 11 15 C9.35 14.67 7.7 14.34 6 14 C5.67 17.96 5.34 21.92 5 26 C6.32 26.33 7.64 26.66 9 27 C9.04254356 28.99954746 9.04080783 31.00041636 9 33 C8.505 33.495 8.505 33.495 8 34 C3.84876038 33.84033694 1.48748517 33.34227682 -1.9375 30.9375 C-5.26354226 26.20040951 -4.27369973 21.91589814 -3.5 16.5 C-3.335 15.675 -3.17 14.85 -3 14 C-3.66 13.67 -4.32 13.34 -5 13 C-4.67 10.69 -4.34 8.38 -4 6 C-3.01 6 -2.02 6 -1 6 C-1.020625 5.195625 -1.04125 4.39125 -1.0625 3.5625 C-1 1 -1 1 0 0 Z " fill="#F1F1F1" transform="translate(177,40)"/>
<path d="M0 0 C1.65 0 3.3 0 5 0 C5.33 0.66 5.66 1.32 6 2 C6.66 1.67 7.32 1.34 8 1 C13.27725011 0.40031249 15.88707202 1.72835275 20 5 C24.50008037 11.75012055 21.28620907 21.46648974 20 29 C18.35 29 16.7 29 15 29 C15.0721875 28.40574219 15.144375 27.81148437 15.21875 27.19921875 C15.74827513 22.4702652 16.12429609 17.75789288 16.25 13 C16.27578125 12.0925 16.3015625 11.185 16.328125 10.25 C16.21984375 9.5075 16.1115625 8.765 16 8 C12.52957297 5.68638198 11.08165827 5.48979272 7 6 C3.4370087 9.39583862 3.06337897 13.60521864 2.3125 18.25 C2.18294922 18.99507812 2.05339844 19.74015625 1.91992188 20.5078125 C1.60335738 22.33685178 1.30032601 24.16822435 1 26 C-0.32 26 -1.64 26 -3 26 C-3.16589226 19.97258105 -2.57114133 14.42505207 -1.5 8.5 C-1.35691406 7.67757812 -1.21382812 6.85515625 -1.06640625 6.0078125 C-0.71693088 4.00415373 -0.35931844 2.00191702 0 0 Z " fill="#E3E3E3" transform="translate(137,96)"/>
<path d="M0 0 C2.64 0.33 5.28 0.66 8 1 C6.6798974 12.39947424 4.96285717 23.69394268 3 35 C0.36 35 -2.28 35 -5 35 C-4.40441531 27.01677879 -3.30400812 19.19768645 -1.9375 11.3125 C-1.75123047 10.21744141 -1.56496094 9.12238281 -1.37304688 7.99414062 C-0.9191176 5.32876102 -0.4613836 2.66409751 0 0 Z " fill="#F2F2F2" transform="translate(133,31)"/>
<path d="M0 0 C4.15672698 0.74227268 5.83984093 1.31995388 8.5 4.625 C9.45725403 9.12577336 9.05861691 12.55245554 6.9375 16.625 C3.70083763 19.28072297 1.67077279 19.69817145 -2.5 19.625 C-5.30189446 17.85858828 -7.01524911 16.59450178 -8.5 13.625 C-8.98205722 9.44717079 -8.91000905 6.60037315 -6.4375 3.1875 C-3.5 0.625 -3.5 0.625 0 0 Z " fill="#070707" transform="translate(81.5,90.375)"/>
<path d="M0 0 C2.64 0.33 5.28 0.66 8 1 C7.18515791 9.69164892 6.10645242 18.34174123 5 27 C2.36 26.67 -0.28 26.34 -3 26 C-2.58440013 17.1849081 -2.13031092 8.60397419 0 0 Z " fill="#F1F1F1" transform="translate(193,49)"/>
<path d="M0 0 C1.65 0 3.3 0 5 0 C4.67 2.64 4.34 5.28 4 8 C5.98 8 7.96 8 10 8 C10 9.32 10 10.64 10 12 C7.69 11.67 5.38 11.34 3 11 C2.67 16.61 2.34 22.22 2 28 C4.475 28.99 4.475 28.99 7 30 C7 30.99 7 31.98 7 33 C0.51225217 33.36723101 0.51225217 33.36723101 -1.7109375 31.7734375 C-4.21490825 28.32858077 -3.34829445 24.07104826 -3 20 C-2.46525729 16.63157794 -1.790491 13.317239 -1 10 C-1.99 10 -2.98 10 -4 10 C-4 8.68 -4 7.36 -4 6 C-2.68 6 -1.36 6 0 6 C0 4.02 0 2.04 0 0 Z " fill="#EAEAEA" transform="translate(122,87)"/>
<path d="M0 0 C1.65 0 3.3 0 5 0 C5.33 0.66 5.66 1.32 6 2 C9.465 1.505 9.465 1.505 13 1 C13 2.65 13 4.3 13 6 C11.88625 6.103125 10.7725 6.20625 9.625 6.3125 C8.42875 6.539375 7.2325 6.76625 6 7 C3.65176736 10.52234896 3.45145613 12.88606658 2.9375 17.0625 C2.09491059 23.81017882 2.09491059 23.81017882 1 26 C-0.32 25.67 -1.64 25.34 -3 25 C-2.53007706 16.52902072 -1.74640116 8.30812204 0 0 Z " fill="#DFDFDF" transform="translate(103,91)"/>
<path d="M0 0 C1.65 0 3.3 0 5 0 C5 0.99 5 1.98 5 3 C5.66 2.67 6.32 2.34 7 2 C8.99960012 1.960008 11.00047242 1.95653201 13 2 C13 3.32 13 4.64 13 6 C11.906875 6.020625 10.81375 6.04125 9.6875 6.0625 C5.80304833 6.6043707 5.80304833 6.6043707 4.1875 9.8125 C2.42145668 15.02341793 1.75800473 20.56911903 1 26 C-0.32 26 -1.64 26 -3 26 C-3.18960162 20.78595539 -2.75390222 16.37714451 -1.51171875 11.3203125 C-0.68576182 7.57513373 -0.3633504 3.81517915 0 0 Z " fill="#E8E8E8" transform="translate(195,105)"/>
<path d="M0 0 C8.1942446 0.48201439 8.1942446 0.48201439 11.625 2.6875 C13 5 13 5 12.9375 8.125 C12 11 12 11 9 13 C5.29455413 13.19850603 2.52994613 13.17664871 -1 12 C-0.67 8.04 -0.34 4.08 0 0 Z " fill="#0F0F0F" transform="translate(50,79)"/>
<path d="M0 0 C3.5625 0.25 3.5625 0.25 7 1 C8.52491998 4.04983996 8.23562548 6.6423369 8 10 C6.8125 11.9375 6.8125 11.9375 5 13 C2.5 13.4375 2.5 13.4375 0 13 C-1.875 11.4375 -1.875 11.4375 -3 9 C-2.67272727 2.67272727 -2.67272727 2.67272727 0 0 Z " fill="#0B0B0B" transform="translate(108,43)"/>
<path d="M0 0 C2.375 1.8125 2.375 1.8125 4 4 C4 5.32 4 6.64 4 8 C-1.4185766 8.22577402 -5.77487721 7.46670113 -11 6 C-10.45353364 3.38670046 -10.17228706 2.18504907 -8.3125 0.1875 C-5.09168663 -1.46643119 -3.41804519 -1.06813912 0 0 Z " fill="#0F0F0F" transform="translate(180,106)"/>
<path d="M0 0 C3.0625 0.1875 3.0625 0.1875 5.0625 2.1875 C4.50694444 6.74305556 4.50694444 6.74305556 3.0625 8.1875 C0.625 8.375 0.625 8.375 -1.9375 8.1875 C-3.9375 6.1875 -3.9375 6.1875 -4.125 3.625 C-3.8509967 0.06295712 -3.62735131 0.23153306 0 0 Z " fill="#F8F8F8" transform="translate(197.9375,38.8125)"/>
<path d="M0 0 C0.33 0 0.66 0 1 0 C1.33 3.96 1.66 7.92 2 12 C-0.31 11.67 -2.62 11.34 -5 11 C-3.77782954 6.95743617 -2.37245704 3.50711041 0 0 Z " fill="#1C1C1C" transform="translate(49,29)"/>
<path d="M0 0 C1.65 0 3.3 0 5 0 C5.33 0.99 5.66 1.98 6 3 C6.66 3.33 7.32 3.66 8 4 C7.34 4.66 6.68 5.32 6 6 C4.02 5.01 2.04 4.02 0 3 C0 2.01 0 1.02 0 0 Z " fill="#181818" transform="translate(241,63)"/>
<path d="M0 0 C0 0.99 0 1.98 0 3 C-1.65 3 -3.3 3 -5 3 C-5.33 2.01 -5.66 1.02 -6 0 C-6.99 -0.33 -7.98 -0.66 -9 -1 C-5.23375329 -2.25541557 -3.62811066 -1.37061958 0 0 Z " fill="#0D0D0D" transform="translate(245,74)"/>
<path d="M0 0 C0.66 0 1.32 0 2 0 C0.9024777 2.99324263 0.32317108 3.84610901 -2.625 5.25 C-3.40875 5.4975 -4.1925 5.745 -5 6 C-5.66 4.68 -6.32 3.36 -7 2 C-6.21625 2.04125 -5.4325 2.0825 -4.625 2.125 C-1.83883881 2.28728734 -1.83883881 2.28728734 0 0 Z " fill="#BBD5FB" transform="translate(276,52)"/>
<path d="M0 0 C0.99 0.33 1.98 0.66 3 1 C2.67 3.31 2.34 5.62 2 8 C1.01 8 0.02 8 -1 8 C-1 5.16032769 -0.59732819 2.76264289 0 0 Z " fill="#323232" transform="translate(170,45)"/>
</svg>
